<svg width="1920" height="732" viewBox="0 0 1920 732" fill="none" xmlns="http://www.w3.org/2000/svg">
<g clip-path="url(#clip0)">
<rect width="1920" height="732" fill="white"/>
<path fill-rule="evenodd" clip-rule="evenodd" d="M2033.34 429.628C2033.34 429.628 1844.4 377.949 1723.37 554.204C1602.35 730.458 1491.43 740.761 1323.46 643.374C1155.49 546 1169.78 267.031 1008.73 207.89C847.672 148.749 668.848 137.543 767.965 -163.442C867.081 -464.425 740.306 -351.672 625.937 -481.875C511.568 -612.074 1892.13 -478.66 1892.13 -478.66L1956.49 103.337L2033.34 429.628Z" fill="#00A2A7"/>
<path fill-rule="evenodd" clip-rule="evenodd" d="M1127.25 -5.58129C1127.25 -5.58129 977.468 95.2566 1045.48 266.972C1113.49 438.687 1057.38 518.678 883.937 581.999C710.503 645.324 500.303 492.954 360.809 571.188C221.316 649.42 109.08 764.15 -69.2824 543.371C-247.645 322.594 -232.692 465.689 -400.826 476.111C-568.956 486.534 334.254 -375.211 334.254 -375.211L827.265 -120.768L1127.25 -5.58129Z" fill="#0B0043"/>
</g>
<defs>
<clipPath id="clip0">
<rect width="1920" height="732" fill="white"/>
</clipPath>
</defs>
</svg>
