<svg width="768" height="294" viewBox="0 0 768 294" fill="none" xmlns="http://www.w3.org/2000/svg">
<g clip-path="url(#clip0)">
<rect width="768" height="294" fill="white"/>
<path fill-rule="evenodd" clip-rule="evenodd" d="M808.367 120.758C808.367 120.758 719.381 98.1172 662.382 175.335C605.383 252.552 553.144 257.066 474.036 214.4C394.929 171.741 401.659 49.5237 325.807 23.614C249.955 -2.29567 165.735 -7.20529 212.416 -139.067C259.097 -270.928 199.389 -221.531 145.525 -278.573C91.6617 -335.614 741.861 -277.165 741.861 -277.165L772.172 -22.1907L808.367 120.758Z" fill="#00A2A7"/>
<path fill-rule="evenodd" clip-rule="evenodd" d="M453.951 -6.32743C453.951 -6.32743 383.407 37.8498 415.437 113.078C447.467 188.307 421.044 223.351 339.357 251.092C257.675 278.835 158.678 212.082 92.9809 246.356C27.2841 280.63 -25.5753 330.893 -109.578 234.17C-193.581 137.447 -186.539 200.137 -265.724 204.703C-344.908 209.269 80.4741 -168.263 80.4741 -168.263L312.666 -56.7911L453.951 -6.32743Z" fill="#0B0043"/>
</g>
<defs>
<clipPath id="clip0">
<rect width="768" height="294" fill="white"/>
</clipPath>
</defs>
</svg>
